<?xml version="1.0" encoding="utf-8"?>
<!-- Generator: Adobe Illustrator 22.0.0, SVG Export Plug-In . SVG Version: 6.00 Build 0)  -->
<svg version="1.1" id="Layer_1" xmlns="http://www.w3.org/2000/svg" xmlns:xlink="http://www.w3.org/1999/xlink" x="0px" y="0px"
	 viewBox="0 0 841.9 595.3" style="enable-background:new 0 0 841.9 595.3;" xml:space="preserve">
<g>
	<path style="fill:#8ae6fd;" d="M220.5,338.7c49.9,0.2,84.1,49.5,66.1,92.4c-15.8,37.6-37.5,71.6-60.2,105.1c-4.3,6.4-8.3,6.9-12.8,0.2
		c-22.2-33.3-44-66.6-59.8-103.7C133.4,384.8,173.4,337.9,220.5,338.7z M185,404.6c-0.2,19.7,14.8,35.3,34,35.6
		c20.2,0.3,36.4-15.3,36.3-35c-0.1-19.5-15.1-34.2-35.2-34.5C199.8,370.5,185.2,384.6,185,404.6z"/>
	<path style="fill:#8ae6fd;" d="M646.3,87.4c-0.7,11.1-5.1,23-10.4,34.6c-14.8,32.1-33.7,61.9-53.7,90.9c-4.4,6.4-8.6,10.2-14.6,1.2
		c-22.9-33.9-45.8-67.9-60.3-106.4c-10-26.4-3.1-51.8,18.3-71.6c21.1-19.5,52.1-24.3,78.8-12.2C629.9,35.4,646.6,60.1,646.3,87.4z
		 M573.7,118.4c21.3,0.2,35.7-14,35.6-35c-0.1-18.8-15-34.1-33.7-34.5c-20.1-0.5-36.4,14.9-36.6,34.8
		C538.7,103,553.9,118.2,573.7,118.4z"/>
	<path style="fill:#8ae6fd;" d="M479.3,452.8c-0.2,7.5-1.4,14.5-9.7,15.4c-8.4,0.9-10.8-4.9-11.7-12.5c-0.9-7.9-3.4-15.6-5.1-23.4
		c-1.2-5.7,0.2-10.5,5.9-12.9c5.9-2.5,10,0.5,12.9,5.4C476.6,433.7,478.2,443.4,479.3,452.8z"/>
	<path style="fill:#8ae6fd;" d="M335.8,518.7c9.3-0.8,14.2,1.5,15.5,8.1c1.2,6.2-2.7,9.9-8.2,11.1c-10,2.3-20.1,4.2-30.3,5.8c-5.6,0.9-10.4-1.4-11.7-7.5
		c-1.5-6.9,2.7-10.8,8.7-12.3C319.3,521.5,329.1,520,335.8,518.7z"/>
	<path style="fill:#8ae6fd;" d="M275.8,531.3c9.3-0.8,14.2,1.5,15.5,8.1c1.2,6.2-2.7,9.9-8.2,11.1c-10,2.3-20.1,4.2-30.3,5.8c-5.6,0.9-10.4-1.4-11.7-7.5
		c-1.5-6.9,2.7-10.8,8.7-12.3C259.3,534.2,269,532.6,275.8,531.3z"/>
	<path style="fill:#8ae6fd;" d="M442.1,263c0.1,3.6-1.5,6.5-4,8.7c-6.2,5.3-10.8,11.7-14.2,19.1c-2.7,5.7-7.3,9.1-13.7,6.5c-6.5-2.6-7.2-8.3-5.3-14.2
		c3.5-11.2,10.3-20.2,20-26.5C432.8,251.3,441.6,255,442.1,263z"/>
	<path style="fill:#8ae6fd;" d="M378,532c-8.6,0.1-13.7-1.8-14.6-8.7c-0.8-6.1,3.3-9.8,8.6-11c10-2.3,20.1-4.3,30.2-5.7c5.6-0.7,10.1,2.4,11.4,8.2
		c1.3,6.1-2.4,10.1-7.8,11.4C396,528.7,385.9,530.4,378,532z"/>
	<path style="fill:#8ae6fd;" d="M467.4,263.3c-7.9,0.3-12.9-1-14.5-7.1c-1.7-6.1,1.6-10.3,7-12.1c9.8-3.2,19.8-6,29.9-8.4c5.7-1.3,10.5,1,12.1,6.9
		c1.6,5.9-1.4,10.4-6.9,12.3C485.2,258.3,475.2,261,467.4,263.3z"/>
	<path style="fill:#8ae6fd;" d="M529,249.3c-7.9,0.3-12.9-1-14.5-7.1c-1.7-6.1,1.6-10.3,7-12.1c9.8-3.2,19.8-6,29.9-8.4c5.7-1.3,10.5,1,12.1,6.9
		c1.6,5.9-1.4,10.4-6.9,12.3C546.8,244.3,536.8,247,529,249.3z"/>
	<path style="fill:#8ae6fd;" d="M451.4,403.7c0.4,8-7.4,13.3-14.5,8.9c-11.5-7.1-19.5-17.7-23.4-30.6c-2.3-7.8,5.4-13.8,12.8-11.2
		C429.8,372,451.2,400.2,451.4,403.7z"/>
	<path style="fill:#8ae6fd;" d="M468,488.8c-0.1,10-24.7,31.1-34.4,29.5c-8-1.4-11.4-9.9-5.6-16c7.4-7.7,15.8-14.6,24-21.6c3-2.6,6.8-3.2,10.5-1
		C466,481.6,468,484.6,468,488.8z"/>
	<path style="fill:#8ae6fd;" d="M399.5,336.5c-0.3-11-0.4-17.4,9.4-17.8c9.1-0.3,11.1,4.8,11.5,12.3c0.3,5.1,1.4,10.2,2,15.4c0.8,6.3-1.1,11.5-8,12.8
		c-6.8,1.3-10.8-2.6-12.3-8.8C400.6,344.5,399.8,338.4,399.5,336.5z"/>
	<path style="fill:#8ae6fd;" d="M219.1,427.7c-12.5-0.3-22.7-10.2-22.8-22.1c-0.1-12,11.6-23.5,23.6-23.4c13,0.2,23.5,10.8,23.1,23.4
		C242.7,418.8,232.8,428,219.1,427.7z"/>
	<path style="fill:#8ae6fd;" d="M574.3,61.4c13.1-0.1,23.9,10.2,23.6,22.6c-0.3,11.6-11.1,22.5-22.7,22.8c-13,0.4-23.9-9.8-24-22.4
		C551.1,71.2,560.7,61.6,574.3,61.4z"/>
</g>
</svg>
