<?xml version="1.0" encoding="utf-8"?>
<!-- Generator: Adobe Illustrator 22.0.0, SVG Export Plug-In . SVG Version: 6.00 Build 0)  -->
<svg version="1.1" id="Layer_1" xmlns="http://www.w3.org/2000/svg" xmlns:xlink="http://www.w3.org/1999/xlink" x="0px" y="0px"
	 viewBox="0 0 841.9 595.3" style="enable-background:new 0 0 841.9 595.3;" xml:space="preserve">
<g>
	<path style="fill:#8ae6fd;" d="M303.6,352.4c26,0.1,43.8,25.8,34.4,48.1c-8.2,19.6-19.5,37.3-31.3,54.7c-2.2,3.3-4.3,3.6-6.7,0.1
		c-11.6-17.3-22.9-34.7-31.1-54C258.3,376.4,279.1,352,303.6,352.4z M285.1,386.7c-0.1,10.3,7.7,18.4,17.7,18.5
		c10.5,0.2,18.9-8,18.9-18.2c-0.1-10.1-7.9-17.8-18.3-18C292.8,368.9,285.2,376.3,285.1,386.7z"/>
	<path style="fill:#8ae6fd;" d="M475.8,407.3c-0.1,5-0.9,9.6-6.4,10.2c-5.6,0.6-7.2-3.3-7.8-8.3c-0.6-5.2-2.3-10.4-3.4-15.6c-0.8-3.8,0.1-7,3.9-8.6
		c3.9-1.7,6.6,0.3,8.6,3.6C474,394.6,475,401,475.8,407.3z"/>
	<path style="fill:#8ae6fd;" d="M380.4,451.1c6.2-0.5,9.4,1,10.3,5.4c0.8,4.1-1.8,6.6-5.4,7.4c-6.6,1.5-13.4,2.8-20.1,3.9c-3.7,0.6-6.9-0.9-7.8-5
		c-1-4.6,1.8-7.2,5.8-8.2C369.5,452.9,376,451.9,380.4,451.1z"/>
	<path style="fill:#8ae6fd;" d="M340.5,459.5c6.2-0.5,9.4,1,10.3,5.4c0.8,4.1-1.8,6.6-5.4,7.4c-6.6,1.5-13.4,2.8-20.1,3.9c-3.7,0.6-6.9-0.9-7.8-5
		c-1-4.6,1.8-7.2,5.8-8.2C329.6,461.4,336,460.3,340.5,459.5z"/>
	<path style="fill:#8ae6fd;" d="M408.5,459.9c-5.7,0.1-9.1-1.2-9.7-5.8c-0.5-4.1,2.2-6.5,5.7-7.3c6.6-1.5,13.4-2.9,20.1-3.8c3.7-0.5,6.7,1.6,7.6,5.4
		c0.9,4.1-1.6,6.7-5.2,7.6C420.4,457.7,413.7,458.9,408.5,459.9z"/>
	<path style="fill:#8ae6fd;" d="M457.2,374.7c0.3,5.3-4.9,8.8-9.6,5.9c-7.6-4.7-13-11.8-15.6-20.3c-1.5-5.2,3.6-9.2,8.5-7.4
		C442.9,353.6,457.1,372.3,457.2,374.7z"/>
	<path style="fill:#8ae6fd;" d="M468.3,431.2c-0.1,6.6-16.4,20.7-22.9,19.6c-5.3-0.9-7.6-6.6-3.7-10.6c4.9-5.1,10.5-9.7,15.9-14.4c2-1.7,4.5-2.1,7-0.7
		C466.9,426.4,468.3,428.4,468.3,431.2z"/>
	<path style="fill:#8ae6fd;" d="M422.8,330c-0.2-7.3-0.3-11.6,6.2-11.8c6-0.2,7.4,3.2,7.6,8.2c0.2,3.4,0.9,6.8,1.3,10.2c0.5,4.2-0.7,7.6-5.3,8.5
		c-4.5,0.9-7.2-1.7-8.2-5.8C423.5,335.3,423,331.3,422.8,330z"/>
	<path style="fill:#8ae6fd;" d="M302.9,398.7c-6.5-0.2-11.8-5.3-11.9-11.5c-0.1-6.2,6-12.2,12.3-12.2c6.8,0.1,12.2,5.6,12,12.2
		C315.1,394.1,310,398.9,302.9,398.7z"/>
</g>
<g>
	<path style="fill:#8ae6fd;" d="M572.3,209.9c-2.5,3.5-4.5,7.3-7.5,10.3c-26.4,26.9-53.1,53.3-79.2,80.4c-11.5,11.9-24.1,17.7-41,17.5
		c-15.8-0.2-28.1-5.3-38.2-16.9c-3.4-3.9-7.1-7.5-10.6-11.3c-5.7-6.1-11.5-12.1-17.1-18.2c-6.2-6.7-6.2-14.4,0.3-20.8
		c37.1-37.1,74.1-74.2,111.3-111.3c6.6-6.5,14.2-6.7,20.7-0.2c19,18.9,37.9,37.9,56.8,57c2,2,3.1,5,4.6,7.5
		C572.3,205.9,572.3,207.9,572.3,209.9z M439.7,212.1c-17.2,16.8-34.4,33.5-52.8,51.4c12.2,11.7,24,23.1,36,34.4
		c4.6,4.3,10.2,6.6,16.9,6.1c4.6-0.4,9.4,0.3,14-0.2c3.2-0.3,7.1-0.9,9.2-2.9c11.4-10.7,22.3-21.8,33.1-32.5
		C476.6,249,457.9,230.3,439.7,212.1z"/>
</g>
</svg>
