<?xml version="1.0" encoding="utf-8"?>
<!-- Generator: Adobe Illustrator 22.0.0, SVG Export Plug-In . SVG Version: 6.00 Build 0)  -->
<svg width="45px" height="45px" version="1.1" id="Layer_1" xmlns="http://www.w3.org/2000/svg" xmlns:xlink="http://www.w3.org/1999/xlink" x="0px" y="0px"
	 viewBox="0 0 841.9 595.3" style="enable-background:new 0 0 841.9 595.3;" xml:space="preserve">
<g>
	<path style="fill:#8ae6fd;" d="M359.3,10.5c10.7,2.8,20.8,5.4,31,8c15.6,4,31.1,8,46.8,12.1c29.9,7.7,59.8,15.5,89.7,23.3c4.4,1.2,8.9,2.5,13.3,3.4
		c2.5,0.5,2.9,1.8,2.9,4c0,29.7,0,59.6,0,89.4c0,21.2,0,42.3,0,63.5c0,58.7,0,117.4,0,176.1c0,46.3,0,92.8,0,139
		c0,2.8-0.9,3.8-3.5,4.4c-31.7,9-63.6,18.2-95.4,27.3c-22.5,6.4-45.1,12.7-67.5,19.2c-5.7,1.7-11.5,3.2-17.5,5.1
		C359.3,393.6,359.3,202.3,359.3,10.5z M383.5,298.3c0-5.1-2.8-8.6-6.4-8.6c-3.7,0-6.6,3.5-6.6,8.1c0,1.2,0.2,2.6,0.6,3.8
		c1.1,3.2,3.7,5.1,6.4,4.9c2.8-0.2,5.2-2.6,5.8-6C383.5,299.6,383.5,298.9,383.5,298.3z"/>
	<path style="fill:#8ae6fd;" d="M284.6,514c21.2,0,42,0,63,0c0,8.1,0,16.1,0,24.1c-29.1,0-58.1,0-87.4,0c0-159.9,0-320,0-480c29.1,0,58.1,0,87.4,0
		c0,8,0,15.8,0,23.9c-20.8,0-41.9,0-63,0C284.6,226.2,284.6,369.9,284.6,514z"/>
</g>
</svg>
