<?xml version="1.0" encoding="utf-8"?>
<!-- Generator: Adobe Illustrator 22.0.0, SVG Export Plug-In . SVG Version: 6.00 Build 0)  -->
<svg version="1.1" id="Layer_1" xmlns="http://www.w3.org/2000/svg" xmlns:xlink="http://www.w3.org/1999/xlink" x="0px" y="0px"
	 viewBox="0 0 841.9 595.3" style="enable-background:new 0 0 841.9 595.3;" xml:space="preserve" height="50" width="50">
<g>
	<path style="fill:#8ae6fd;" d="M378,94.9c7,1.8,13.6,3.5,20.2,5.2c10.2,2.6,20.3,5.2,30.5,7.9c19.5,5,39,10.1,58.5,15.2c2.9,0.8,5.8,1.6,8.7,2.2
		c1.6,0.3,1.9,1.2,1.9,2.6c0,19.4,0,38.9,0,58.3c0,13.8,0,27.6,0,41.4c0,38.3,0,76.6,0,114.9c0,30.2,0,60.5,0,90.7
		c0,1.8-0.6,2.5-2.3,2.9c-20.7,5.9-41.5,11.9-62.2,17.8c-14.7,4.2-29.4,8.3-44,12.5c-3.7,1.1-7.5,2.1-11.4,3.3
		C378,344.8,378,220,378,94.9z M393.8,282.6c0-3.3-1.8-5.6-4.2-5.6c-2.4,0-4.3,2.3-4.3,5.3c0,0.8,0.1,1.7,0.4,2.5
		c0.7,2.1,2.4,3.3,4.2,3.2c1.8-0.1,3.4-1.7,3.8-3.9C393.8,283.5,393.8,283,393.8,282.6z"/>
	<path style="fill:#8ae6fd;" d="M329.3,423.3c13.8,0,27.4,0,41.1,0c0,5.3,0,10.5,0,15.7c-19,0-37.9,0-57,0c0-104.3,0-208.7,0-313.1c19,0,37.9,0,57,0
		c0,5.2,0,10.3,0,15.6c-13.6,0-27.3,0-41.1,0C329.3,235.6,329.3,329.3,329.3,423.3z"/>
</g>
</svg>
