<?xml version="1.0" encoding="utf-8"?>
<!-- Generator: Adobe Illustrator 22.0.0, SVG Export Plug-In . SVG Version: 6.00 Build 0)  -->
<svg width="45px" height="45px" version="1.1" id="Layer_1" xmlns="http://www.w3.org/2000/svg" xmlns:xlink="http://www.w3.org/1999/xlink" x="0px" y="0px"
	 viewBox="0 0 841.9 595.3" style="enable-background:new 0 0 841.9 595.3;" xml:space="preserve">

<g>
	<path style="fill:#8ae6fd;" d="M181.9,290.9c0-2.3,0-4.6,0-7c26.7-25.5,53.3-51.1,80.1-76.5c3.5-3.3,7.8-5.9,11.7-8.8c1,0.7,2,1.3,3,2
		c0,12.9,0,25.7,0,38.7c39.9,0,78.3,0,116.9,0c0-39.5,0-78.3,0-118.7c-14.4,0-27.9,0-36.7,0c27.2-29.5,55.9-60.6,84.5-91.7
		c1.5,0,3.1,0,4.6,0c27.2,27.9,54.5,55.8,81.6,83.8c2.3,2.3,3.2,6,5.9,11.4c-15.7,0-28.6,0-41.6,0c0,39.2,0,76.9,0,115.2
		c39,0,77.3,0,117.3,0c0-13.6,0-26.4,0-42.6c6.5,4.9,10.5,7.5,14,10.7c26.8,25.4,53.4,51,80.1,76.5c0,2.3,0,4.6,0,7
		c-30.1,29.7-58.1,61.5-89.5,89.9c-1-0.7-2.1-1.3-3.1-2c0-13.3,0-26.7,0-40.4c-40.3,0-79.4,0-118.6,0c0,39.3,0,77.8,0,117.7
		c13.6,0,26.4,0,42.7,0c-4.7,6.4-7,10.6-10.2,13.9c-23.5,24.5-47.5,48.6-70.8,73.4c-7.3,7.7-12.3,7.7-19.7,0.3
		C409,518.5,383.3,494,358,469.1c-2.5-2.5-4.3-5.6-8.5-11.1c16.8,0,30.4,0,43.8,0c0-41.1,0-80.6,0-120c-40,0-78.8,0-119.4,0
		c0,14.2,0,27.7,0,42.6C242.2,349.7,212.1,320.3,181.9,290.9z" />
</g>
</svg>
