<?xml version="1.0" encoding="utf-8"?>
<!-- Generator: Adobe Illustrator 22.0.0, SVG Export Plug-In . SVG Version: 6.00 Build 0)  -->
<svg version="1.1" id="Layer_1" xmlns="http://www.w3.org/2000/svg" xmlns:xlink="http://www.w3.org/1999/xlink" x="0px" y="0px"
	 viewBox="0 0 841.9 595.3" style="enable-background:new 0 0 841.9 595.3;" xml:space="preserve">
<style type="text/css">
	.st0{fill:#FFFFFF;}
</style>
<g>
	<path d="M701.3,311c0,80.3,0,160.6,0,240.9c0,9.6-1.6,11.2-11.4,11.2c-160.8,0-321.6,0-482.4,0c-8.5,0-10.5-1.9-10.5-10.6
		c0-161,0-321.9,0-482.9c0-8.9,1.8-10.7,10.9-10.7c161,0,321.9,0,482.9,0c8.6,0,10.5,2,10.5,10.6C701.3,150,701.3,230.5,701.3,311z
		 M254.3,547.2c0-2.9,0-5.5,0-8.2c0-127.3,0-254.6,0-381.9c0-7.3,2.7-9.9,9.9-9.9c93.7,0,187.3,0,281,0c10.2,0,11.9,1.8,11.9,11.9
		c0,127.3,0,254.6,0,381.9c0,2.1,0,4.1,0,6.1c43.3,0,85.7,0,128.1,0c0-157.6,0-314.8,0-472.1c-157.6,0-314.8,0-472.1,0
		c0,157.6,0,314.8,0,472.2C226.9,547.2,240.4,547.2,254.3,547.2z M357.5,476.2c-7,0-13.1,0-19.3,0c-8,0-10-2.1-10-10.1
		c0-35.7-0.1-71.3,0-107c0-7.3-0.1-14.7,1.1-21.9c3-18.4,18.4-40,46.9-39c20.3,0.7,40.7,0.1,61,0.2c4.1,0,8.4,0.3,12.4,1.3
		c19.4,5,33.5,23.8,33.6,45.7c0.3,40.5,0.1,81,0.1,121.5c0,7-2.3,9.2-9.3,9.3c-6.5,0.1-12.9,0-19.9,0c0,23.9,0,47.3,0,70.9
		c28.8,0,57.7,0,86.9,0c0-128.2,0-256,0-383.9c-90.4,0-180.5,0-270.4,0c0,128.2,0,256,0,383.8c29.4,0,58.3,0,86.9,0
		C357.5,523.5,357.5,500.2,357.5,476.2z M413.6,547.5c4.9,0,9.1,0,13.2,0c11.2,0,11.8-0.3,11.8-11.7c0-20.8-0.5-41.7-0.5-62.5
		c-0.1-23.5,0.1-47,0.2-70.5c0-7.2,5.9-11,11.7-7.8c3.6,2,4.1,5.3,4.1,9c0,17,0,34,0,51c0,1.8,0,3.5,0,5.3c4.8,0,8.9,0,13.6,0
		c0-2.3,0-4.3,0-6.2c0-20.3,0-40.7,0-61c0-16.5,0.4-33-0.5-49.5c-1-18.5-13.7-29.6-32.1-29.5c-20.3,0.1-40.7,0.1-61,0
		c-11.8-0.1-19.9,5.4-25.6,15.3c-3.6,6.4-4.6,13.4-4.6,20.7c0.1,35,0,70,0,105c0,1.8,0.2,3.5,0.3,5.3c4.6,0,8.7,0,13.2,0
		c0-2.3,0-4.3,0-6.3c0-17,0-34,0.1-51c0-6.1,2.9-9.2,8.2-9.1c5.1,0.1,7.5,3,7.5,9c0,18,0,36,0,54c0,27.5,0,55,0,82.5
		c0,6,1.6,7.8,7.6,8c5.6,0.2,11.2,0,17.2,0c0-5.3,0-9.6,0-13.9c0-20.2,0-40.3,0-60.5c0-6.6,4.6-10,10.5-8.1c4.6,1.5,5.1,5.2,5.1,9.2
		c0,11.3,0,22.7,0,34C413.6,521,413.6,533.8,413.6,547.5z"/>
	<path class="st0" d="M406.2,186.9c-26.4-0.3-48.2,21.2-48.7,47.9c-0.5,26.8,21.2,49.6,47.4,50c26.9,0.4,49-21.7,49.2-49.2
		C454.2,209.1,432.7,187.2,406.2,186.9z"/>
	<path d="M391.3,85.1c7.5,0,15,0,22.5,0c15,0.1,26.6,10.8,27.1,25.1c0.5,13.9-10.9,25.9-25.8,26.4c-15.7,0.4-31.3,0.4-47,0
		c-15.6-0.4-26.1-11.8-25.9-27.1c0.3-13.6,12.2-24.3,27.1-24.4C376.6,85.1,383.9,85.1,391.3,85.1z M391.8,101.8
		c-7.6,0-15.3-0.1-22.9,0c-7.1,0.1-10.8,3.4-10.9,9.5c-0.1,6,3.7,10.2,10.4,10.3c15.5,0.2,30.9,0.2,46.4,0
		c6.1-0.1,10.4-4.6,10.4-9.9c0-5.5-4.6-9.8-10.9-9.9C406.8,101.7,399.3,101.8,391.8,101.8z"/>
	<path d="M622.2,312.7c-10.2,9.2-20.2,18.2-30.2,27.2c-5.1,4.6-8.8,5-12,1.3c-3.4-3.9-2.7-9,1.9-13.1c11.5-10.3,23.1-20.6,34.6-30.9
		c4.1-3.7,7.9-3.8,12-0.1c11.7,10.6,23.4,21.2,35,32c4.2,3.9,4.6,8.1,1.6,11.4c-3.3,3.6-8,3.6-12.3-0.2
		C642.7,331.2,632.6,322,622.2,312.7z"/>
	<path d="M622.2,397.7c9.8-8.8,19-17.2,28.3-25.5c1-0.9,1.9-1.9,3-2.7c3.8-2.9,8.5-2.7,11.3,0.4c2.7,3,2.4,8-1,11.2
		c-3.8,3.7-7.9,7.1-11.9,10.7c-7.8,7-15.6,14-23.4,21c-4.8,4.3-8.5,4.4-13.1,0.1c-11.6-10.5-23.1-21.1-34.6-31.7
		c-4.2-3.9-4.5-8.1-1.1-11.8c3.1-3.4,7.4-3.4,11.5,0.3c8.7,7.7,17.3,15.6,25.9,23.4C618.7,394.6,620.3,396,622.2,397.7z"/>
	<path d="M406.2,186.9c26.5,0.3,48.1,22.2,47.9,48.7c-0.2,27.5-22.3,49.6-49.2,49.2c-26.2-0.4-47.9-23.2-47.4-50
		C357.9,208.1,379.7,186.6,406.2,186.9z M405.8,201.9c-17.9,0-32.6,15.2-32.5,33.5c0.1,18.1,14.7,32.8,32.6,32.8
		c17.8,0,32.4-14.8,32.4-32.9C438.2,216.5,423.9,201.9,405.8,201.9z"/>
</g>
</svg>
