<?xml version="1.0" encoding="utf-8"?>
<!-- Generator: Adobe Illustrator 22.0.0, SVG Export Plug-In . SVG Version: 6.00 Build 0)  -->
<svg version="1.1" id="Layer_1" xmlns="http://www.w3.org/2000/svg" xmlns:xlink="http://www.w3.org/1999/xlink" x="0px" y="0px"
	 viewBox="0 0 841.9 595.3" style="enable-background:new 0 0 841.9 595.3;" xml:space="preserve">
<g>
	<path style="fill:#8ae6fd;" d="M230,382.3c42.5,0.2,71.7,42.2,56.3,78.7c-13.4,32.1-31.9,61-51.2,89.5c-3.6,5.4-7,5.9-11,0.2
		c-19-28.3-37.5-56.8-50.9-88.4C155.9,421.5,189.9,381.6,230,382.3z M199.7,438.4c-0.2,16.9,12.6,30.1,29,30.3
		c17.2,0.3,30.9-13.1,30.9-29.8c-0.2-16.5-12.9-29.1-29.9-29.5C212.3,409.3,199.9,421.4,199.7,438.4z"/>
	<path style="fill:#8ae6fd;" d="M511.8,472.1c-0.2,8.2-1.5,15.7-10.5,16.7c-9.2,1-11.8-5.4-12.8-13.6c-1-8.5-3.8-17-5.6-25.5c-1.3-6.2,0.2-11.5,6.4-14.1
		c6.4-2.8,10.8,0.5,14.1,5.9C508.9,451.3,510.5,461.8,511.8,472.1z"/>
	<path style="fill:#8ae6fd;" d="M355.7,543.8c10.1-0.8,15.4,1.6,16.9,8.8c1.3,6.7-2.9,10.8-8.8,12.1c-10.8,2.5-21.9,4.6-32.9,6.4c-6.1,1-11.3-1.5-12.8-8.2
		c-1.6-7.5,2.9-11.8,9.5-13.4C337.8,546.7,348.5,545.1,355.7,543.8z"/>
	<path style="fill:#8ae6fd;" d="M290.4,557.5c10.1-0.8,15.4,1.6,16.9,8.8c1.3,6.7-2.9,10.8-8.8,12.1c-10.8,2.5-21.9,4.6-32.9,6.4c-6.1,1-11.3-1.5-12.8-8.2
		c-1.6-7.5,2.9-11.8,9.5-13.4C272.6,560.6,283,558.8,290.4,557.5z"/>
	<path style="fill:#8ae6fd;" d="M401.7,558.2c-9.3,0.2-14.9-2-15.9-9.5c-0.8-6.7,3.6-10.6,9.3-11.9c10.8-2.5,21.9-4.7,32.9-6.2c6.1-0.8,11,2.6,12.4,8.8
		c1.5,6.7-2.6,11-8.5,12.4C421.1,554.6,410.2,556.6,401.7,558.2z"/>
	<path style="fill:#8ae6fd;" d="M481.4,418.8c0.5,8.7-8,14.4-15.7,9.7c-12.4-7.7-21.3-19.3-25.5-33.2c-2.5-8.5,5.9-15.1,13.9-12.1
		C458,384.2,481.2,414.8,481.4,418.8z"/>
	<path style="fill:#8ae6fd;" d="M499.5,511.2c-0.2,10.8-26.8,33.9-37.5,32.1c-8.7-1.5-12.4-10.8-6.1-17.3c8-8.3,17.2-15.9,26-23.6
		c3.3-2.8,7.4-3.4,11.5-1.1C497.2,503.4,499.5,506.6,499.5,511.2z"/>
	<path style="fill:#8ae6fd;" d="M425.1,345.6c-0.3-11.9-0.5-19,10.1-19.3c9.8-0.3,12.1,5.2,12.4,13.4c0.3,5.6,1.5,11.1,2.1,16.7c0.8,6.9-1.1,12.4-8.7,13.9
		c-7.4,1.5-11.8-2.8-13.4-9.5C426.2,354.3,425.4,347.7,425.1,345.6z"/>
	<path style="fill:#8ae6fd;" d="M228.9,458c-10.6-0.3-19.3-8.7-19.5-18.8c-0.2-10.1,9.8-20,20.1-20c11.1,0.2,20,9.2,19.6,20
		C248.8,450.5,240.5,458.4,228.9,458z"/>
</g>
<g>
	<path style="fill:#8ae6fd;" d="M669.7,149.1c-4.1,5.7-7.4,11.9-12.3,16.9c-43.2,44-86.9,87.2-129.6,131.6c-18.8,19.5-39.4,29-67.1,28.6
		c-25.9-0.3-46-8.7-62.5-27.7c-5.6-6.4-11.6-12.3-17.3-18.5c-9.3-10-18.8-19.8-28-29.8c-10.1-11-10.1-23.6,0.5-34
		C414.1,155.5,474.7,94.7,535.5,34c10.8-10.6,23.2-11,33.9-0.3c31.1,30.9,62,62,93,93.3c3.3,3.3,5.1,8.2,7.5,12.3
		C669.7,142.5,669.7,145.8,669.7,149.1z M452.7,152.7c-28.1,27.5-56.3,54.8-86.4,84.1c20,19.1,39.3,37.8,58.9,56.3
		c7.5,7,16.7,10.8,27.7,10c7.5-0.7,15.4,0.5,22.9-0.3c5.2-0.5,11.6-1.5,15.1-4.7c18.7-17.5,36.5-35.7,54.2-53.2
		C513.1,213.1,482.5,182.5,452.7,152.7z"/>
</g>
</svg>
