<?xml version="1.0" encoding="utf-8"?>
<!-- Generator: Adobe Illustrator 22.0.0, SVG Export Plug-In . SVG Version: 6.00 Build 0)  -->
<svg width="45px" height="45px" version="1.1" id="Layer_1" xmlns="http://www.w3.org/2000/svg" xmlns:xlink="http://www.w3.org/1999/xlink" x="0px" y="0px"
	 viewBox="0 0 841.9 595.3" style="enable-background:new 0 0 841.9 595.3;" xml:space="preserve">
<style type="text/css">
	.st0{fill:#FFFFFF;}
</style>
<g>
	<path style="fill:#8ae6fd;" class="st0" d="M330.1,242.9c37.4,14.3,41.3,19.9,38.2,54.1c-0.6,6.4-4.2,14.1-2,19.1c3.4,7.8,9.5,17.1,16.9,20.1
		c3.8,1.6,14.7-7.8,18.3-14.5c3.6-6.8,1.2-16.9,3.4-25c11.9-40.1-5.8-64.2-40.9-80.3c-5.2-2.4-11.9-8.7-12.1-13.5
		c-0.8-14.3,1.2-28.8,2.4-45.9c29.4,34.4,20.1,28.8,58,20.9c5.8-1.2,11.7-1.8,17.3-3.4c12.3-3.6,32.4-2.2,28.2-21.7
		c-4.4-20.5-22.5-13.1-35.8-8.9c-21.7,6.8-39.2,5.4-50.1-17.5c-1.4-2.8-4-5-6-7.6c-25.2-32.4-48.7-35.2-80.5-10.1
		c-15.3,12.1-30.6,24.6-46.5,36c-11.5,8.1-14.7,17.5-9.5,30.4c6.4,15.7,12.7,31.4,18.7,47.3c4,10.5,12.3,18.3,22.1,12.3
		c5.6-3.4,8.3-16.1,7.4-24.2c-1.4-10.7-8.7-20.5-11.1-31.2c-1.2-5.4,0.4-13.7,4-17.7c6.2-6.8,14.9-11.3,25.8-18.9
		c-5.8,84.7,11.1,167.7-29.4,244.3c-6,11.3-5.6,22.5,7.4,28.2c13.7,5.8,21.9-2,27-14.7c18.1-44.9,35.8-90,29.2-140.1
		C329.5,255.1,330.1,249.9,330.1,242.9z M417,353c-20.3,0-40.7-0.8-60.8,0.6c-4.6,0.4-12.3,8.7-12.3,13.3c-0.2,11.9,5,23.8,4.6,35.6
		c-0.6,16.1,5.8,20.5,20.7,19.9c24.2-0.8,48.3,0,72.7-0.2c58.4-0.8,47.9,7.6,49.1-50.3c0-0.6,0-1.4,0-2c1-12.5-4-17.7-17.1-17.3
		C455.1,353.6,436,353,417,353z M574.6,195.6L574.6,195.6c-20.1,0-40.5-0.8-60.6,0.8c-4.6,0.4-12.5,8.5-12.5,13.1
		c-0.2,11.9,4.8,23.8,4.8,35.6c0,14.3,5.2,20.1,19.5,19.9c24.8-0.4,49.5,0,74.3-0.2c55.1-0.4,47.7,7.6,48.3-51.3c0-0.6,0-1.2,0-2
		c0.4-11.7-5.6-16.1-16.9-15.9C612.5,196,593.5,195.6,574.6,195.6z M261,510.4c-20.9,0-41.9-0.8-62.6,0.6
		c-4.6,0.2-12.7,7.8-12.5,11.9c0.4,13.9,2.6,27.8,6.4,41.3c1.6,5.8,8.5,14.7,13.1,14.7c37.8,1.2,75.7,1.2,113.5-0.2
		c5-0.2,14.5-10.9,13.9-15.5c-2.6-17.3,11.3-38.2-9.1-51.9c-2.8-1.8-7.6-0.6-11.5-0.6C294.9,510.2,277.9,510.2,261,510.4z
		 M336.9,431.5c-19.5,0-39.2-0.8-58.8,0.6c-5,0.4-13.5,8.3-13.5,12.7c0,12.5,5.4,25,5.2,37.2c-0.2,14.9,5.4,19.3,19.5,18.9
		c24.2-0.8,48.3,0.2,72.5-0.2c58.2-1,49.1,10.5,50.1-53.1c0.2-11.7-4.8-16.3-16.5-16.1C376,431.9,356.4,431.5,336.9,431.5z
		 M494.9,274.3c-19.7,0-39.4-0.8-59,0.6c-5,0.4-13.5,8.3-13.5,12.7c0,13.9,2.4,28,5.8,41.5c1.4,5.2,7.4,13.3,11.7,13.3
		c38.6,1,77.3,0.6,115.9,0.6c11.5,0,15.5-7.2,13.3-16.7c-4-17.1,11.1-37.8-9.7-51.3c-2.8-1.8-7.6-0.4-11.7-0.4
		C530.3,274.3,512.6,274.3,494.9,274.3z M366.7,50c-0.2-18.5-13.9-34-30.4-34.4c-17.5-0.4-32.4,15.5-32.6,34.6
		c-0.2,18.7,15.1,35.4,32,35.4C353,85.7,366.9,69.8,366.7,50z"/>
	<path style="fill:#8ae6fd;" d="M330.1,242.9c0,7-0.6,12.5,0,17.5c6.6,50.1-11.1,95-29.2,140.1c-5,12.7-13.3,20.5-27,14.7c-12.9-5.4-13.3-16.9-7.4-28.2
		c40.5-76.5,23.5-159.6,29.4-244.3c-10.7,7.6-19.5,12.1-25.8,18.9c-3.6,4-5.4,12.3-4,17.7c2.4,10.7,9.7,20.5,11.1,31.2
		c1,7.8-1.8,20.7-7.4,24.2c-9.9,6-17.9-1.8-22.1-12.3c-6-15.9-12.3-31.6-18.7-47.3c-5.2-12.9-2-22.1,9.5-30.4
		c15.9-11.3,31.2-23.8,46.5-36c32-25.4,55.4-22.3,80.5,10.1c2,2.6,4.8,4.8,6,7.6c10.9,22.9,28.6,24.4,50.1,17.5
		c13.1-4.2,31.4-11.7,35.8,8.9c4.2,19.5-15.9,18.1-28.2,21.7c-5.6,1.6-11.5,2.2-17.3,3.4c-38,7.8-28.6,13.5-58-20.9
		c-1,17.1-3.2,31.6-2.4,45.9c0.2,4.8,6.8,11.1,12.1,13.5c35,16.1,52.7,40.3,40.9,80.3c-2.4,8.1,0.2,17.9-3.4,25
		c-3.6,6.6-14.7,16.1-18.3,14.5c-7.2-3-13.5-12.1-16.9-20.1c-2.2-5.2,1.4-12.7,2-19.1C371.3,262.6,367.5,257,330.1,242.9z"/>
	<path style="fill:#8ae6fd;" d="M417,353c18.9,0,38,0.6,57-0.2c12.9-0.6,18.1,4.8,17.1,17.3c0,0.6,0,1.2,0,2c-1.2,58,9.3,49.5-49.1,50.3
		c-24.2,0.2-48.3-0.6-72.7,0.2c-14.9,0.6-21.3-4-20.7-19.9c0.4-11.9-4.8-23.8-4.6-35.6c0-4.6,7.6-13.1,12.3-13.3
		C376.4,352.2,396.9,353,417,353z"/>
	<path style="fill:#8ae6fd;" d="M574.6,195.6c18.9,0,37.8,0.4,56.8-0.2c11.5-0.2,17.3,4.2,16.9,15.9c0,0.6,0,1.2,0,2c-0.6,59.2,6.8,50.9-48.3,51.3
		c-24.8,0.2-49.5-0.4-74.3,0.2c-14.3,0.2-19.5-5.6-19.5-19.9c0-11.9-5-23.8-4.8-35.6c0-4.6,7.8-12.7,12.5-13.1
		C534,194.8,554.3,195.8,574.6,195.6L574.6,195.6z"/>
	<path style="fill:#8ae6fd;" d="M261,510.2c16.9,0,34,0,50.9,0c3.8,0,8.9-1.2,11.5,0.6c20.3,13.7,6.6,34.6,9.1,51.9c0.6,4.6-8.9,15.3-13.9,15.5
		c-37.8,1.4-75.7,1.4-113.5,0.2c-4.6-0.2-11.5-8.9-13.1-14.7c-3.8-13.3-6-27.4-6.4-41.3c-0.2-4,7.8-11.5,12.5-11.9
		C219.2,509.6,240.1,510.4,261,510.2z"/>
	<path style="fill:#8ae6fd;" d="M336.9,431.5c19.5,0,39.2,0.4,58.8-0.2c11.7-0.2,16.5,4.4,16.5,16.1c-0.8,63.8,8.1,52.1-50.1,53.1
		c-24.2,0.4-48.3-0.6-72.5,0.2c-14.3,0.4-19.7-4-19.5-18.9c0-12.5-5.2-25-5.2-37.2c0-4.4,8.5-12.3,13.5-12.7
		C297.7,430.5,317.4,431.5,336.9,431.5z"/>
	<path style="fill:#8ae6fd;" d="M494.9,274.3c17.7,0,35.4,0,53.1,0c4,0,8.9-1.4,11.7,0.4c20.7,13.5,5.6,34.4,9.7,51.3c2.2,9.7-1.8,16.7-13.3,16.7
		c-38.6,0-77.3,0.4-115.9-0.6c-4.2-0.2-10.5-8.1-11.7-13.3c-3.4-13.5-5.8-27.6-5.8-41.5c0-4.4,8.5-12.3,13.5-12.7
		C455.5,273.5,475.2,274.3,494.9,274.3z"/>
	<path style="fill:#8ae6fd;" d="M366.7,50c0.2,19.7-13.7,35.6-31,35.6c-16.9,0-32.2-16.9-32-35.4c0.2-19.1,15.1-35,32.6-34.6C352.8,16,366.5,31.5,366.7,50
		z"/>
</g>
</svg>
