<?xml version="1.0" encoding="utf-8"?>
<!-- Generator: Adobe Illustrator 22.0.0, SVG Export Plug-In . SVG Version: 6.00 Build 0)  -->
<svg version="1.1" id="Layer_1" xmlns="http://www.w3.org/2000/svg" xmlns:xlink="http://www.w3.org/1999/xlink" x="0px" y="0px"
	 viewBox="0 0 841.9 595.3" style="enable-background:new 0 0 841.9 595.3;" xml:space="preserve">
<style type="text/css">
	.st0{fill:#8ae6fd;}
</style>
<g>
	<path style="fill:#8ae6fd;" class="st0" d="M373.3,255.8c18.6,7.1,20.5,9.9,19,26.9c-0.3,3.2-2.1,7-1,9.5c1.7,3.9,4.7,8.5,8.4,10c1.9,0.8,7.3-3.9,9.1-7.2
		c1.8-3.4,0.6-8.4,1.7-12.4c5.9-19.9-2.9-31.9-20.3-39.9c-2.6-1.2-5.9-4.3-6-6.7c-0.4-7.1,0.6-14.3,1.2-22.8
		c14.6,17.1,10,14.3,28.8,10.4c2.9-0.6,5.8-0.9,8.6-1.7c6.1-1.8,16.1-1.1,14-10.8c-2.2-10.2-11.2-6.5-17.8-4.4
		c-10.8,3.4-19.5,2.7-24.9-8.7c-0.7-1.4-2-2.5-3-3.8c-12.5-16.1-24.2-17.5-40-5c-7.6,6-15.2,12.2-23.1,17.9c-5.7,4-7.3,8.7-4.7,15.1
		c3.2,7.8,6.3,15.6,9.3,23.5c2,5.2,6.1,9.1,11,6.1c2.8-1.7,4.1-8,3.7-12c-0.7-5.3-4.3-10.2-5.5-15.5c-0.6-2.7,0.2-6.8,2-8.8
		c3.1-3.4,7.4-5.6,12.8-9.4c-2.9,42.1,5.5,83.3-14.6,121.4c-3,5.6-2.8,11.2,3.7,14c6.8,2.9,10.9-1,13.4-7.3
		c9-22.3,17.8-44.7,14.5-69.6C373,261.9,373.3,259.3,373.3,255.8z M416.5,310.5c-10.1,0-20.2-0.4-30.2,0.3c-2.3,0.2-6.1,4.3-6.1,6.6
		c-0.1,5.9,2.5,11.8,2.3,17.7c-0.3,8,2.9,10.2,10.3,9.9c12-0.4,24,0,36.1-0.1c29-0.4,23.8,3.8,24.4-25c0-0.3,0-0.7,0-1
		c0.5-6.2-2-8.8-8.5-8.6C435.4,310.8,425.9,310.5,416.5,310.5z M494.8,232.3C494.8,232.3,494.8,232.3,494.8,232.3
		c-10,0-20.1-0.4-30.1,0.4c-2.3,0.2-6.2,4.2-6.2,6.5c-0.1,5.9,2.4,11.8,2.4,17.7c0,7.1,2.6,10,9.7,9.9c12.3-0.2,24.6,0,36.9-0.1
		c27.4-0.2,23.7,3.8,24-25.5c0-0.3,0-0.6,0-1c0.2-5.8-2.8-8-8.4-7.9C513.6,232.5,504.2,232.3,494.8,232.3z M339,388.7
		c-10.4,0-20.8-0.4-31.1,0.3c-2.3,0.1-6.3,3.9-6.2,5.9c0.2,6.9,1.3,13.8,3.2,20.5c0.8,2.9,4.2,7.3,6.5,7.3
		c18.8,0.6,37.6,0.6,56.4-0.1c2.5-0.1,7.2-5.4,6.9-7.7c-1.3-8.6,5.6-19-4.5-25.8c-1.4-0.9-3.8-0.3-5.7-0.3
		C355.8,388.6,347.4,388.6,339,388.7z M376.7,349.5c-9.7,0-19.5-0.4-29.2,0.3c-2.5,0.2-6.7,4.1-6.7,6.3c0,6.2,2.7,12.4,2.6,18.5
		c-0.1,7.4,2.7,9.6,9.7,9.4c12-0.4,24,0.1,36-0.1c28.9-0.5,24.4,5.2,24.9-26.4c0.1-5.8-2.4-8.1-8.2-8
		C396.1,349.7,386.4,349.5,376.7,349.5z M455.2,271.4c-9.8,0-19.6-0.4-29.3,0.3c-2.5,0.2-6.7,4.1-6.7,6.3c0,6.9,1.2,13.9,2.9,20.6
		c0.7,2.6,3.7,6.6,5.8,6.6c19.2,0.5,38.4,0.3,57.6,0.3c5.7,0,7.7-3.6,6.6-8.3c-2-8.5,5.5-18.8-4.8-25.5c-1.4-0.9-3.8-0.2-5.8-0.2
		C472.8,271.4,464,271.4,455.2,271.4z M391.5,160c-0.1-9.2-6.9-16.9-15.1-17.1c-8.7-0.2-16.1,7.7-16.2,17.2
		c-0.1,9.3,7.5,17.6,15.9,17.6C384.7,177.7,391.6,169.8,391.5,160z"/>
	<path style="fill:#8ae6fd;" d="M373.3,255.8c0,3.5-0.3,6.2,0,8.7c3.3,24.9-5.5,47.2-14.5,69.6c-2.5,6.3-6.6,10.2-13.4,7.3c-6.4-2.7-6.6-8.4-3.7-14
		c20.1-38,11.7-79.3,14.6-121.4c-5.3,3.8-9.7,6-12.8,9.4c-1.8,2-2.7,6.1-2,8.8c1.2,5.3,4.8,10.2,5.5,15.5c0.5,3.9-0.9,10.3-3.7,12
		c-4.9,3-8.9-0.9-11-6.1c-3-7.9-6.1-15.7-9.3-23.5c-2.6-6.4-1-11,4.7-15.1c7.9-5.6,15.5-11.8,23.1-17.9c15.9-12.6,27.5-11.1,40,5
		c1,1.3,2.4,2.4,3,3.8c5.4,11.4,14.2,12.1,24.9,8.7c6.5-2.1,15.6-5.8,17.8,4.4c2.1,9.7-7.9,9-14,10.8c-2.8,0.8-5.7,1.1-8.6,1.7
		c-18.9,3.9-14.2,6.7-28.8-10.4c-0.5,8.5-1.6,15.7-1.2,22.8c0.1,2.4,3.4,5.5,6,6.7c17.4,8,26.2,20,20.3,39.9
		c-1.2,4,0.1,8.9-1.7,12.4c-1.8,3.3-7.3,8-9.1,7.2c-3.6-1.5-6.7-6-8.4-10c-1.1-2.6,0.7-6.3,1-9.5
		C393.8,265.6,391.9,262.8,373.3,255.8z"/>
	<path style="fill:#8ae6fd;" d="M416.5,310.5c9.4,0,18.9,0.3,28.3-0.1c6.4-0.3,9,2.4,8.5,8.6c0,0.3,0,0.6,0,1c-0.6,28.8,4.6,24.6-24.4,25
		c-12,0.1-24-0.3-36.1,0.1c-7.4,0.3-10.6-2-10.3-9.9c0.2-5.9-2.4-11.8-2.3-17.7c0-2.3,3.8-6.5,6.1-6.6
		C396.3,310.1,406.5,310.5,416.5,310.5z"/>
	<path style="fill:#8ae6fd;" d="M494.8,232.3c9.4,0,18.8,0.2,28.2-0.1c5.7-0.1,8.6,2.1,8.4,7.9c0,0.3,0,0.6,0,1c-0.3,29.4,3.4,25.3-24,25.5
		c-12.3,0.1-24.6-0.2-36.9,0.1c-7.1,0.1-9.7-2.8-9.7-9.9c0-5.9-2.5-11.8-2.4-17.7c0-2.3,3.9-6.3,6.2-6.5
		C474.6,231.9,484.7,232.4,494.8,232.3C494.8,232.3,494.8,232.3,494.8,232.3z"/>
	<path style="fill:#8ae6fd;" d="M339,388.6c8.4,0,16.9,0,25.3,0c1.9,0,4.4-0.6,5.7,0.3c10.1,6.8,3.3,17.2,4.5,25.8c0.3,2.3-4.4,7.6-6.9,7.7
		c-18.8,0.7-37.6,0.7-56.4,0.1c-2.3-0.1-5.7-4.4-6.5-7.3c-1.9-6.6-3-13.6-3.2-20.5c-0.1-2,3.9-5.7,6.2-5.9
		C318.2,388.3,328.6,388.7,339,388.6z"/>
	<path style="fill:#8ae6fd;" d="M376.7,349.5c9.7,0,19.5,0.2,29.2-0.1c5.8-0.1,8.2,2.2,8.2,8c-0.4,31.7,4,25.9-24.9,26.4c-12,0.2-24-0.3-36,0.1
		c-7.1,0.2-9.8-2-9.7-9.4c0-6.2-2.6-12.4-2.6-18.5c0-2.2,4.2-6.1,6.7-6.3C357.2,349,367,349.5,376.7,349.5z"/>
	<path style="fill:#8ae6fd;" d="M455.2,271.4c8.8,0,17.6,0,26.4,0c2,0,4.4-0.7,5.8,0.2c10.3,6.7,2.8,17.1,4.8,25.5c1.1,4.8-0.9,8.3-6.6,8.3
		c-19.2,0-38.4,0.2-57.6-0.3c-2.1-0.1-5.2-4-5.8-6.6c-1.7-6.7-2.9-13.7-2.9-20.6c0-2.2,4.2-6.1,6.7-6.3
		C435.6,271,445.4,271.4,455.2,271.4z"/>
	<path style="fill:#8ae6fd;" d="M391.5,160c0.1,9.8-6.8,17.7-15.4,17.7c-8.4,0-16-8.4-15.9-17.6c0.1-9.5,7.5-17.4,16.2-17.2
		C384.6,143.1,391.4,150.8,391.5,160z"/>
</g>
</svg>
