<?xml version="1.0" encoding="utf-8"?>
<!-- Generator: Adobe Illustrator 22.0.0, SVG Export Plug-In . SVG Version: 6.00 Build 0)  -->
<svg version="1.1" id="Layer_1" xmlns="http://www.w3.org/2000/svg" xmlns:xlink="http://www.w3.org/1999/xlink" x="0px" y="0px"
	 viewBox="0 0 841.9 595.3" style="enable-background:new 0 0 841.9 595.3;" xml:space="preserve">
<g>
	<path style="fill:#8ae6fd;" d="M329.4,265c2.1,2.2,3.3,3.5,4.5,4.8c25.1,25.1,50.2,50.2,75.3,75.3c3,3,6,6,4,10.8c-2,4.7-6,5.1-10.4,5.1
		c-17.7-0.1-35.3-0.1-53,0c-10,0.1-18.4-3.4-25.5-10.5c-34.8-34.9-69.7-69.8-104.6-104.7c-8.4-8.4-8.4-17.3,0-25.7
		c34.9-34.9,69.8-69.7,104.6-104.7c7-7,15.1-10.5,25-10.4c18,0.2,36,0.1,54,0c4.3,0,8,0.6,9.8,5.1c1.8,4.4-0.6,7.3-3.4,10.1
		c-25.2,25.2-50.4,50.4-75.7,75.6c-1.4,1.4-3.3,2.2-5,3.3c0.4,0.6,0.8,1.3,1.2,1.9c1.7,0,3.4,0,5.2,0c51.8,0,103.7,0,155.5,0
		c45.7,0,83.8,29.9,94.3,74.3c1.7,7.1,2.4,14.5,2.6,21.7c0.3,21,0.1,42,0.1,63c0,49.7-35.8,90.8-85.2,95.8c-19.8,2-39.9,1-59.9,0.8
		c-8.6-0.1-14.6-7.3-14.7-16c-0.1-10.2-0.1-20.3,0-30.5c0.1-10.2,6.6-16.9,16.9-17c15.3-0.1,30.7-0.1,46-0.1
		c19.2,0,33.1-13.9,33.1-33c0-20.8,0-41.7,0-62.5c0-18.6-13.9-32.6-32.4-32.6c-52.5-0.1-105,0-157.5,0C333,265,331.8,265,329.4,265z
		"/>
</g>
</svg>
